Barton.Fink.1991.720p.BRRip.x264.aac.mp4-anoXmous

Format                           : MPEG-4
Format profile                   : Base Media
Codec ID                         : isom
File size                        : 698 MiB
Duration                         : 1h 56mn
Overall bit rate mode            : Variable
Overall bit rate                 : 835 Kbps

Video
ID                               : 1
Format                           : AVC
Format/Info                      : Advanced Video Codec
Format profile                   : High@L4.1
Format settings, CABAC           : Yes
Format settings, ReFrames        : 4 frames
Codec ID                         : avc1
Codec ID/Info                    : Advanced Video Coding
Duration                         : 1h 56mn
Bit rate                         : 760 Kbps
Maximum bit rate                 : 6 121 Kbps
Width                            : 1 280 pixels
Height                           : 696 pixels
Display aspect ratio             : 16:9
Frame rate mode                  : Constant
Frame rate                       : 23.976 fps
Color space                      : YUV
Chroma subsampling               : 4:2:0
Bit depth                        : 8 bits
Scan type                        : Progressive
Bits/(Pixel*Frame)               : 0.036
Stream size                      : 636 MiB (91%)
Writing library                  : x264 core 116 r2074 2641b9e


Audio
ID                               : 2
Format                           : AAC
Format/Info                      : Advanced Audio Codec
Format profile                   : LC
Codec ID                         : 40
Duration                         : 1h 56mn
Bit rate mode                    : Variable
Bit rate                         : 72.0 Kbps
Maximum bit rate                 : 95.4 Kbps
Channel(s)                       : 2 channels
Channel positions                : Front: L R
Sampling rate                    : 48.0 KHz 
Compression mode                 : Lossy
Stream size                      : 60.0 MiB (9%)
Language                         : English
               
                         SUB:

Barton.Fink.1991.720p.BRRip.x264.aac.mp4-anoXmous.mp4_eng.srt

Barton.Fink.1991.720p.BRRip.x264.aac.mp4-anoXmous.mp4_swe.srt
 
http://www.imdb.com/title/tt0101410/



